# xmcd CD database file
#
# Track frame offsets:
#	183
#	13855
#	26745
#	40393
#	53028
#	65208
#	77650
#	90428
#	102163
#	114343
#	128898
#	143005
#	154763
#	168108
#	183938
#	198540
#	211068
#	224125
#	237585
#	252000
#	266950
#	279890
#	292825
#	304380
#	315645
#	327128
#
# Disc length: 4530 seconds
#
# Revision: 2
# Processed by: cddbd v1.5.1PL0 Copyright (c) Steve Scherf et al.
# Submitted via: CDex 1.50Beta7
#
DISCID=7911b01a
DTITLE=Jelly Roll Morton - Complete Edition Volume 1 - 1923-1924
DYEAR=1924
DGENRE=Jazz
TTITLE0=Big Fat Ham (JRM and his Orchestra, Chicago, June 1923)
TTITLE1=Big Fat Ham 2 (JRM and his Orchestra, Chicago, June 1923)
TTITLE2=Muddy Water Blues (JRM and his Orchestra, Chicago, June 1923)
TTITLE3=Sobbin' Blues (New Orleans Rhythm Kings, Richmond, 17 July 1923)
TTITLE4=King Portor [sic] (JRM, Richmond, 17 July 1923)
TTITLE5=New Orleans Joys (JRM, Richmond, 17 July 1923)
TTITLE6=New Orleans Joys 2 (JRM, Richmond, 17 July 1923)
TTITLE7=Clarinet Marmalade (New Orleans Rhythm Kings, Richmond, 17 July 1923)
TTITLE8=Clarinet Marmalade 2 (New Orleans Rhythm Kings, Richmond, 17 July 1923)
TTITLE9=Mr Jelly Lord (New Orleans Rhythm Kings, Richmond, 17 July 1923)
TTITLE10=Mr Jelly Lord 2 (New Orleans Rhythm Kings, Richmond, 17 July 1923)
TTITLE11=Grandpa's Spells (JRM, Richmond, 18 July 1923)
TTITLE12=Kansas City Stomp (JRM, Richmond, 18 July 1923)
TTITLE13=Wolverine Blues (JRM, Richmond, 18 July 1923)
TTITLE14=The Pearls (JRM, Richmond, 18 July 1923)
TTITLE15=London Blues (New Orleans Rhythm Kings, Richmond, 18 July 1923)
TTITLE16=Milenburg Joys (New Orleans Rhythm Kings, Richmond, 18 July 1923)
TTITLE17=Milenburg Joys 2 (New Orleans Rhythm Kings, Richmond, 18 July 1923)
TTITLE18=Some Day Sweetheart (JRM's Jazz Band, Chicago, October 1923)
TTITLE19=London Blues (JRM's Jazz Band, Chicago, October 1923)
TTITLE20=Mr Jelly Roll (JRM's Steamboat Four, Chicago, April 1924)
TTITLE21=Mr Jelly Roll 2 (JRM's Steamboat Four, Chicago, April 1924)
TTITLE22=Steady Roll (JRM's Jazz Kids, Chicago, April 1924)
TTITLE23=Steady Roll 2 (JRM's Stomp Kings, Chicago, April 1924)
TTITLE24=35th Street Blues (JRM, Chicago, April 1924)
TTITLE25=Mamanita (JRM, Chicago, April 1924)
EXTD=YEAR: 1924
EXTT0=
EXTT1=
EXTT2=
EXTT3=
EXTT4=
EXTT5=
EXTT6=
EXTT7=
EXTT8=
EXTT9=
EXTT10=
EXTT11=
EXTT12=
EXTT13=
EXTT14=
EXTT15=
EXTT16=
EXTT17=
EXTT18=
EXTT19=
EXTT20=
EXTT21=
EXTT22=
EXTT23=
EXTT24=
EXTT25=
PLAYORDER=
